<?xml version="1.0" standalone="no"?>
<!DOCTYPE svg PUBLIC "-//W3C//DTD SVG 20010904//EN"
 "http://www.w3.org/TR/2001/REC-SVG-20010904/DTD/svg10.dtd">
<svg version="1.0" xmlns="http://www.w3.org/2000/svg"
 width="960.000000pt" height="876.000000pt" viewBox="0 0 960.000000 876.000000"
 preserveAspectRatio="xMidYMid meet">
<metadata>
Created by potrace 1.16, written by Peter Selinger 2001-2019
</metadata>
<g transform="translate(0.000000,876.000000) scale(0.100000,-0.100000)"
fill="#000000" stroke="none">
<path d="M4355 7779 c-1077 -50 -1885 -210 -2482 -494 -218 -104 -397 -219
-570 -368 l-103 -88 0 -77 c0 -112 -24 -256 -60 -354 -50 -137 -128 -244 -328
-451 -326 -337 -357 -399 -357 -722 1 -152 4 -194 23 -267 35 -143 86 -267
227 -558 74 -151 150 -322 169 -380 61 -182 86 -374 86 -665 0 -225 -15 -409
-70 -834 -55 -432 -72 -670 -68 -931 l3 -215 42 -80 c93 -175 266 -365 428
-471 200 -130 437 -212 740 -256 139 -20 653 -17 835 5 314 38 588 89 1011
187 142 33 376 80 520 105 303 52 468 90 589 136 47 18 274 127 505 243 231
117 600 295 820 396 652 300 957 462 1253 663 254 173 486 385 631 580 82 110
99 142 184 362 116 296 174 379 498 712 289 297 352 379 420 550 51 127 63
199 63 393 0 147 -4 189 -22 264 -62 249 -171 396 -537 721 -356 317 -432 420
-566 780 -66 179 -125 305 -179 386 -169 252 -437 516 -631 623 -146 80 -226
93 -476 76 -151 -11 -231 -10 -528 4 -192 9 -471 21 -620 26 -312 11 -1200 11
-1450 -1z m2335 -188 c168 -5 341 -15 385 -21 163 -23 310 -90 447 -204 157
-130 269 -300 498 -756 186 -370 254 -489 347 -604 l56 -69 -215 8 c-218 7
-271 2 -313 -29 -18 -14 -6 -14 110 -9 217 9 394 -22 561 -101 229 -108 397
-272 505 -491 70 -141 91 -231 92 -385 1 -278 -98 -499 -322 -720 -113 -112
-209 -183 -342 -254 -67 -36 -78 -45 -61 -50 21 -7 63 10 115 46 16 11 29 19
31 17 29 -35 24 -43 -55 -97 -126 -86 -182 -175 -269 -428 -61 -176 -121 -305
-182 -391 -202 -286 -547 -563 -1042 -838 -201 -111 -481 -250 -899 -444 -430
-200 -477 -223 -697 -344 -218 -119 -421 -221 -506 -253 -67 -25 -73 -26 -229
-19 -185 8 -233 0 -421 -66 -433 -150 -606 -197 -954 -254 -352 -57 -492 -69
-845 -69 -292 0 -346 2 -470 22 -352 55 -594 154 -765 310 -119 109 -203 246
-230 377 -23 110 0 513 60 1035 61 537 64 581 65 910 0 339 -9 438 -60 642
-42 167 -80 246 -225 468 -132 203 -160 274 -181 468 -26 242 24 456 145 626
24 34 112 132 195 219 83 87 169 185 192 218 95 140 130 259 132 454 l2 120
90 94 c306 318 717 540 1140 617 141 25 396 24 705 -5 207 -20 283 -23 490
-18 253 5 301 10 775 77 422 60 586 73 820 67 213 -5 304 -18 494 -68 326 -86
580 -212 1071 -529 267 -173 470 -292 470 -276 0 3 -96 77 -212 164 -515 387
-832 560 -1236 676 -213 62 -337 78 -622 83 -295 6 -418 -4 -940 -72 -186 -24
-415 -51 -511 -60 -287 -25 -603 -18 -789 17 l-65 12 80 13 c403 64 1184 138
1705 163 124 6 257 12 295 14 131 6 1279 -3 1585 -13z"/>
<path d="M4861 7240 c-117 -10 -158 -15 -566 -74 -334 -49 -509 -66 -735 -73
-232 -7 -374 5 -606 49 -150 29 -189 33 -344 33 -169 0 -177 -1 -232 -27 -56
-26 -140 -95 -159 -130 -18 -34 16 -20 117 47 68 45 108 65 129 65 17 0 103
-9 191 -20 578 -71 1002 -93 1344 -70 144 10 230 25 529 94 203 46 310 57 565
57 758 0 1363 -232 2012 -771 66 -55 75 -59 54 -30 -43 61 -169 187 -272 273
-144 119 -282 208 -459 296 -292 146 -582 229 -944 271 -125 15 -487 20 -624
10z"/>
<path d="M5120 6954 c-185 -17 -249 -24 -267 -31 -12 -4 112 -8 275 -9 458 0
788 -46 1093 -152 261 -91 485 -247 598 -417 40 -60 33 -27 -13 60 -133 255
-544 457 -1076 530 -110 15 -514 28 -610 19z"/>
<path d="M2895 6854 c-306 -35 -521 -99 -641 -190 -40 -31 -78 -105 -114 -220
-36 -116 -24 -129 24 -27 68 142 181 243 345 309 267 108 673 106 1016 -4 50
-16 97 -33 106 -36 26 -11 44 48 22 70 -24 23 -45 30 -199 58 -211 39 -429 54
-559 40z"/>
<path d="M4916 6829 c-14 -11 -60 -66 -102 -121 l-76 -101 4 -101 c3 -56 11
-114 18 -131 l13 -30 7 25 c5 14 8 60 9 104 1 69 5 86 37 147 34 65 149 189
174 189 19 0 10 17 -15 28 -34 16 -38 15 -69 -9z"/>
<path d="M3451 6581 c-14 -4 -26 -12 -28 -18 -2 -6 26 -46 64 -89 l68 -78 -4
-80 c-9 -181 -7 -220 14 -251 l20 -30 3 198 2 198 -52 79 c-29 44 -55 80 -58
79 -3 -1 -16 -4 -29 -8z"/>
<path d="M5685 6354 c-290 -29 -509 -85 -696 -179 -197 -100 -379 -293 -379
-402 0 -42 39 -119 77 -154 15 -15 74 -57 130 -93 56 -37 105 -71 108 -76 3
-5 59 17 123 49 230 115 469 196 702 237 79 14 154 19 305 19 199 0 201 0 355
-39 110 -27 178 -39 235 -40 74 -1 85 2 145 35 62 35 65 38 62 70 -5 56 -76
189 -137 257 -137 150 -353 254 -620 297 -91 15 -336 26 -410 19z m-115 -232
c0 -27 11 -82 25 -122 14 -40 25 -79 25 -85 0 -8 -28 -14 -77 -18 -106 -7
-185 -34 -315 -107 -166 -93 -259 -118 -334 -90 -25 10 -26 13 -20 57 14 103
85 177 241 254 86 42 405 156 443 158 8 1 12 -15 12 -47z m909 -133 c27 -6 68
-24 90 -40 34 -24 41 -35 41 -63 l0 -33 -37 18 c-21 10 -72 23 -113 29 -78 11
-110 31 -110 70 0 31 44 37 129 19z"/>
<path d="M2555 6124 c-161 -29 -296 -119 -355 -237 -16 -33 -30 -66 -30 -73 0
-37 257 -95 523 -119 426 -37 543 -56 680 -106 136 -49 127 -33 127 -223 l0
-163 -242 -194 c-279 -222 -430 -335 -559 -414 -99 -61 -300 -165 -321 -165
-9 -1 -8 -4 3 -10 27 -16 132 9 211 49 40 21 108 57 150 80 42 23 91 46 108
51 30 9 32 7 47 -28 39 -95 44 -102 75 -102 21 0 43 13 77 45 l49 45 48 -38
c27 -21 112 -105 189 -186 272 -287 379 -331 503 -207 51 51 126 189 112 206
-5 6 -22 18 -38 27 -29 17 -29 17 -92 -27 -91 -64 -118 -67 -207 -21 -90 47
-188 142 -266 260 -78 117 -83 128 -67 167 21 50 98 121 190 173 47 27 113 69
148 93 l62 44 0 219 0 219 28 26 c15 14 61 39 102 55 153 62 179 84 187 153 6
52 -3 61 -77 72 -32 5 -73 0 -137 -15 l-91 -21 -78 78 c-65 65 -98 88 -190
135 -276 140 -610 198 -869 152z m314 -196 l46 -23 -150 -12 c-156 -12 -201
-10 -247 14 -61 30 -43 33 231 41 60 2 84 -2 120 -20z"/>
<path d="M6980 5920 c37 -29 97 -50 186 -64 l79 -12 -29 -19 c-18 -12 -55 -21
-100 -25 l-71 -5 35 -19 c50 -28 152 -28 205 0 38 20 85 74 85 98 0 7 -24 11
-63 12 -34 1 -107 13 -162 28 -54 14 -120 26 -145 26 l-45 0 25 -20z"/>
<path d="M1740 5854 c-176 -26 -242 -28 -340 -13 -62 9 -73 8 -122 -12 -160
-68 -324 -208 -413 -352 -140 -228 -164 -525 -64 -801 29 -80 34 -87 85 -121
30 -20 114 -59 187 -86 74 -28 161 -69 199 -94 37 -25 70 -45 73 -45 3 0 5 16
5 35 0 25 -8 44 -25 61 -30 30 -124 74 -209 98 -77 23 -162 61 -203 92 -26 20
-38 42 -62 117 -41 129 -54 227 -49 354 8 185 71 327 200 454 143 142 350 234
601 268 89 12 299 14 399 3 56 -7 65 -6 56 6 -6 7 -25 20 -41 28 -56 29 -115
31 -277 8z"/>
<path d="M7795 5831 c-30 -8 -30 -8 -5 -14 14 -3 126 -10 250 -16 124 -6 255
-17 291 -25 228 -51 380 -168 484 -375 35 -71 49 -218 41 -427 -5 -125 -4
-154 8 -163 23 -19 29 54 23 257 -4 139 -9 194 -26 256 -72 263 -222 413 -487
487 -70 20 -107 23 -314 25 -129 1 -248 -1 -265 -5z"/>
<path d="M7665 5673 c-181 -13 -259 -40 -540 -182 -265 -134 -331 -154 -510
-155 -195 -1 -279 29 -465 169 -125 94 -204 139 -265 151 l-38 7 7 -54 c16
-124 66 -209 166 -283 332 -244 1127 -188 1521 108 l74 56 115 0 c63 0 143 -5
177 -10 152 -25 300 -102 383 -199 83 -97 140 -253 140 -386 0 -70 -6 -91 -84
-305 -34 -92 -42 -161 -26 -220 l12 -45 74 78 c87 93 142 182 180 292 24 69
28 96 28 200 1 99 -3 133 -22 195 -88 283 -330 494 -640 560 -88 18 -215 29
-287 23z"/>
<path d="M1339 5580 c-83 -30 -221 -100 -255 -128 -19 -16 -23 -39 -38 -197
-19 -214 -20 -274 -2 -297 7 -10 16 -18 19 -18 12 0 19 67 21 213 4 221 18
246 176 328 84 43 172 111 159 123 -2 2 -38 -8 -80 -24z"/>
<path d="M1503 5425 c-74 -20 -122 -47 -165 -92 -35 -36 -88 -133 -88 -160 0
-20 41 -16 255 28 176 36 212 41 297 37 128 -6 179 -31 225 -108 18 -30 35
-70 39 -89 3 -20 7 -42 10 -50 3 -10 42 -12 207 -9 187 4 207 6 270 30 38 15
80 36 93 49 30 28 60 92 69 146 6 39 5 43 -24 57 -56 29 -91 21 -190 -44 -50
-33 -95 -60 -99 -60 -4 1 -36 23 -72 50 -118 91 -321 177 -502 214 -94 20
-255 20 -325 1z"/>
<path d="M7655 5336 c-40 -17 -56 -55 -62 -148 l-6 -77 -156 -72 c-1207 -555
-2337 -915 -3227 -1028 -468 -59 -930 -52 -1279 20 -354 73 -661 212 -892 404
-99 83 -100 84 -112 143 -6 33 -16 124 -22 203 -10 150 -20 208 -44 265 -13
31 -18 34 -54 34 -53 0 -69 -24 -77 -120 -5 -68 -14 -93 -99 -270 -110 -228
-137 -314 -159 -505 -70 -631 31 -1266 255 -1597 109 -161 258 -243 579 -321
795 -194 2371 -175 3111 38 422 122 948 402 1335 711 126 102 325 310 434 456
51 68 154 215 230 328 162 242 251 358 349 459 51 52 70 79 65 90 -19 46 -26
90 -20 129 8 56 73 181 101 194 15 7 56 3 140 -12 72 -13 133 -19 154 -15 48
9 91 32 91 49 0 26 -103 107 -234 184 -224 132 -297 224 -314 396 -7 66 -9 71
-32 73 -14 2 -39 -3 -55 -11z m30 -518 c-35 -303 -273 -526 -669 -627 -133
-34 -221 -48 -212 -33 18 30 24 115 14 220 -8 81 -8 116 0 124 6 6 44 25 84
43 40 17 157 79 258 138 240 137 383 195 488 196 l44 1 -7 -62z m-1069 -512
c-36 -153 -128 -269 -273 -344 -111 -57 -184 -84 -405 -148 -103 -29 -228 -69
-278 -87 l-89 -34 -15 71 c-35 163 -67 328 -64 331 2 1 98 30 213 63 116 34
302 89 415 122 113 34 273 78 355 100 l150 38 3 -23 c2 -12 -4 -52 -12 -89z
m-4620 -132 c12 -85 -3 -292 -30 -408 -14 -61 -30 -114 -36 -120 -15 -15 -96
72 -108 117 -18 64 10 201 60 302 33 65 90 155 99 155 4 0 11 -21 15 -46z
m5302 -182 c-30 -33 -96 -126 -148 -208 -104 -165 -186 -257 -267 -298 -29
-14 -57 -26 -62 -26 -5 0 -19 30 -31 66 -42 127 -10 235 98 336 90 83 188 133
327 169 39 10 85 18 104 18 l33 1 -54 -58z m-5014 24 c43 -33 121 -70 189 -92
56 -17 57 -18 57 -56 0 -25 -16 -75 -45 -137 -49 -107 -52 -128 -30 -190 8
-22 13 -41 12 -41 -1 0 -40 14 -87 30 -47 16 -104 30 -126 30 l-42 0 -21 113
c-23 122 -27 229 -10 274 14 37 52 93 63 93 5 0 23 -11 40 -24z m3016 -22 c0
-4 18 -94 41 -201 22 -108 39 -196 37 -197 -2 -1 -39 -8 -83 -15 -43 -7 -142
-29 -220 -48 -281 -69 -320 -75 -512 -80 l-183 -5 0 185 c0 168 2 186 18 191
79 23 672 145 822 169 42 7 80 7 80 1z m-2462 -165 c29 -10 99 -23 155 -29 56
-5 149 -14 206 -20 106 -10 181 -27 181 -40 0 -4 -7 -24 -15 -43 -12 -28 -13
-59 -8 -142 l6 -106 -169 6 c-261 10 -438 35 -529 77 -22 10 -23 13 -11 27 22
24 35 64 47 144 15 97 43 162 66 152 10 -4 42 -15 71 -26z m1352 -194 l0 -185
-309 0 c-170 0 -316 3 -325 6 -25 10 -20 73 14 171 17 47 30 98 30 113 l0 26
98 2 c53 0 160 12 237 26 77 13 166 25 198 25 l57 1 0 -185z m2384 28 c-11
-115 27 -250 97 -343 24 -31 37 -56 30 -58 -6 -2 -80 -50 -163 -107 -410 -279
-509 -344 -585 -383 -44 -23 -86 -42 -92 -42 -6 0 -11 12 -12 28 0 38 -34 119
-101 243 -66 121 -90 203 -86 291 l3 62 135 41 c216 65 564 210 725 302 22 12
43 23 47 23 4 0 5 -26 2 -57z m-1086 -608 c5 -16 41 -93 80 -170 63 -125 104
-236 91 -250 -10 -10 -540 -164 -632 -184 -136 -29 -248 -39 -337 -30 -126 14
-121 10 -113 79 3 34 -2 144 -12 253 -10 108 -15 212 -11 238 l7 46 77 11
c165 26 450 112 727 220 l100 40 7 -112 c3 -61 10 -124 16 -141z m-3606 -184
c40 -77 45 -108 27 -160 l-11 -32 -22 63 c-13 35 -48 111 -79 171 -46 86 -57
117 -57 154 l0 46 52 -84 c28 -46 69 -117 90 -158z m283 67 c63 -70 118 -166
170 -295 64 -160 63 -153 18 -142 -244 57 -313 81 -333 118 -15 30 -12 36 9
17 22 -20 68 -15 110 11 20 13 23 21 19 62 -3 25 -19 78 -36 118 -31 69 -39
114 -26 147 9 25 19 20 69 -36z m2209 -170 c-5 -202 -4 -230 14 -298 11 -41
18 -77 16 -79 -1 -2 -29 -10 -61 -18 -42 -11 -135 -17 -334 -20 l-276 -5 -7
52 c-4 28 -22 138 -41 243 -19 106 -37 206 -40 222 l-5 30 163 2 c173 1 317
21 477 67 47 13 88 24 93 25 4 0 5 -99 1 -221z m-1777 102 c51 -16 108 -30
127 -30 33 0 33 0 40 -57 4 -35 28 -107 60 -183 60 -140 78 -191 72 -198 -10
-9 -204 28 -254 49 -46 19 -53 25 -47 43 24 83 13 120 -76 259 -28 43 -57 94
-65 113 l-14 34 31 0 c18 0 74 -13 126 -30z m675 -10 c150 -46 235 -192 264
-449 l7 -64 -134 6 c-79 3 -162 13 -203 24 l-69 18 -17 55 c-9 30 -45 115 -79
188 -82 175 -95 211 -77 218 71 27 227 29 308 4z"/>
<path d="M4852 4979 c-58 -11 -102 -37 -130 -79 -49 -73 -19 -89 203 -115 175
-20 191 -26 199 -73 9 -56 7 -101 -5 -125 -7 -12 -40 -52 -75 -88 -90 -95
-100 -165 -25 -187 59 -18 100 -14 146 12 78 46 126 148 140 299 10 117 -1
192 -35 231 -68 77 -301 146 -418 125z"/>
<path d="M5348 4934 c-9 -19 -9 -36 1 -72 15 -57 24 -67 75 -95 39 -21 53 -22
311 -22 239 0 274 -2 309 -18 45 -22 56 -15 36 20 -23 40 -64 46 -282 40 -289
-8 -372 8 -406 80 -17 35 -17 35 11 57 31 25 27 36 -15 36 -21 0 -32 -7 -40
-26z"/>
<path d="M1033 4914 c3 -11 10 -37 16 -59 27 -103 106 -172 221 -193 l54 -10
-46 41 c-25 23 -74 66 -108 96 -34 30 -70 68 -80 84 -10 15 -28 36 -40 44 -21
15 -22 14 -17 -3z"/>
<path d="M8832 4717 c-42 -292 -193 -487 -427 -552 -90 -25 -94 -27 -57 -35
18 -4 52 -4 75 2 58 12 186 77 287 146 l85 57 22 100 c12 55 31 152 42 215 19
109 19 116 2 133 -16 17 -18 13 -29 -66z"/>
<path d="M4445 4649 c-111 -16 -177 -47 -219 -102 -36 -47 -43 -84 -18 -91 67
-21 142 -24 280 -11 179 16 249 8 314 -37 14 -10 31 -18 36 -18 17 0 42 91 42
156 l0 62 -67 16 c-139 34 -255 41 -368 25z"/>
<path d="M6755 2590 c-151 -39 -323 -110 -630 -257 -616 -297 -792 -373 -1051
-456 -350 -112 -593 -144 -1304 -172 -217 -9 -404 -17 -415 -20 -11 -2 108 -1
265 2 157 4 416 7 575 8 381 2 564 26 870 115 309 91 524 181 1095 459 223
109 477 228 565 265 88 37 169 71 180 76 47 20 -44 8 -150 -20z"/>
<path d="M7268 2601 c-105 -29 -185 -64 -452 -200 -679 -344 -1274 -572 -1926
-737 -463 -118 -832 -179 -1390 -231 -271 -25 -891 -25 -1085 0 -417 55 -689
153 -892 324 l-52 44 -3 142 -3 142 -24 -24 c-23 -23 -24 -27 -17 -124 8 -124
26 -160 136 -267 151 -148 338 -229 642 -277 160 -25 933 -25 1243 0 957 79
1811 265 2628 573 449 169 960 415 1253 603 77 49 78 51 44 50 -19 0 -65 -8
-102 -18z"/>
<path d="M1890 2144 c0 -22 39 -122 63 -160 67 -107 223 -209 387 -253 160
-43 261 -53 620 -58 190 -3 343 -3 340 0 -3 3 -90 10 -195 16 -629 37 -997
171 -1192 436 -12 17 -23 25 -23 19z"/>
<path d="M4005 1980 c-44 -4 -294 -5 -555 -2 -261 3 -472 1 -468 -3 35 -37
368 -50 988 -38 424 9 425 9 370 26 -64 20 -219 28 -335 17z"/>
</g>
</svg>
